<?xml version="1.0" encoding="UTF-8"?>
<svg version="1.1" xmlns="http://www.w3.org/2000/svg" width="512" height="512">
<path d="M0 0 C1.35444877 -0.00577089 2.70888969 -0.01371848 4.06331444 -0.02363622 C7.76134706 -0.04440068 11.45872988 -0.03424255 15.15676403 -0.01870513 C19.15413375 -0.0073525 23.15139482 -0.02487363 27.14874268 -0.03860474 C34.97009493 -0.06080012 42.79120683 -0.05605252 50.61256838 -0.04154153 C56.97095996 -0.03023469 63.32928434 -0.02872464 69.68768311 -0.03416061 C70.59375946 -0.03492678 71.49983582 -0.03569294 72.43336904 -0.03648233 C74.27423241 -0.03808101 76.11509575 -0.03970207 77.95595908 -0.04134528 C95.20462405 -0.05559195 112.453156 -0.03922707 129.70179915 -0.01234345 C144.49153296 0.00999435 159.28107052 0.00611392 174.07080078 -0.01693726 C191.25910229 -0.0437144 208.44728731 -0.05421875 225.63560677 -0.03887594 C227.46957523 -0.03728325 229.30354371 -0.03571139 231.13751221 -0.03416061 C232.03978338 -0.03338924 232.94205455 -0.03261786 233.87166727 -0.03182311 C240.2200357 -0.02751185 246.56833005 -0.03478026 252.91668701 -0.04655838 C260.65668792 -0.06060321 268.39643539 -0.05674188 276.13640738 -0.03015466 C280.08307684 -0.017043 284.02932426 -0.01181836 287.9759903 -0.02840042 C291.5933691 -0.04336874 295.20993719 -0.03500029 298.82724309 -0.00851266 C300.74603778 -0.00033727 302.66488936 -0.01654401 304.58362389 -0.03379881 C313.0064831 0.06117974 319.82465753 1.60460361 326.28584558 7.28048861 C333.06652855 14.24258039 334.86626174 22.93611611 334.87376404 32.3543396 C334.85459427 33.56809265 334.8354245 34.7818457 334.81567383 36.03237915 C334.80935093 38.03634997 334.8030387 40.04032085 334.79712641 42.04429293 C334.7872333 44.17996835 334.76767612 46.31536812 334.74562645 48.45095062 C334.70105607 52.92511242 334.69287428 57.39890343 334.69099426 61.8732605 C334.68049454 74.59000801 334.62715245 87.30626281 334.52612305 100.02261353 C334.47052414 107.0605144 334.44770931 114.09778293 334.45944959 121.13590074 C334.46408427 124.84921869 334.45190091 128.56073659 334.39809227 132.27370453 C333.8125581 154.22081348 333.8125581 154.22081348 344.41259766 172.63491821 C347.89547735 177.95627035 350.44479833 182.05463889 349.41259766 188.63491821 C348.35009766 191.00991821 348.35009766 191.00991821 346.41259766 192.63491821 C343.0778638 193.48375956 340.62925896 194.07588088 337.34057617 192.88394165 C335.05999933 191.40649058 334.27132369 190.16461279 333.00244141 187.77554321 C332.57592285 186.99646606 332.1494043 186.21738892 331.70996094 185.41470337 C331.26120605 184.57987427 330.81245117 183.74504517 330.35009766 182.88491821 C319.22108118 163.0082032 304.33060057 147.2946126 285.41259766 134.63491821 C284.45095703 133.9890979 283.48931641 133.34327759 282.49853516 132.67788696 C254.43581606 115.16833124 216.55426861 108.43548771 184.27978516 115.66226196 C183.00361328 115.98323853 181.72744141 116.30421509 180.41259766 116.63491821 C179.72198242 116.80652466 179.03136719 116.9781311 178.31982422 117.15493774 C155.49366937 122.95740646 135.7287981 133.6799651 118.41259766 149.63491821 C117.46771484 150.49730103 116.52283203 151.35968384 115.54931641 152.24819946 C91.29751162 175.40232708 76.17961797 209.20934166 75.20947266 242.77944946 C74.66268358 282.04790267 87.3341653 316.98465073 114.41259766 345.63491821 C140.18471076 371.69989624 174.89876188 385.10321961 211.16259766 385.94741821 C244.37604941 385.42334008 275.16839686 374.20115598 300.41259766 352.63491821 C301.23244141 351.94913696 302.05228516 351.26335571 302.89697266 350.55679321 C328.75702662 328.23041122 344.33563846 294.40956016 347.41259766 260.63491821 C348.03030301 248.94033407 347.66259635 237.49284023 345.47998047 225.97744751 C343.26851616 214.25957576 343.26851616 214.25957576 345.47509766 209.19741821 C348.35541958 206.87457795 350.76832987 206.76278726 354.41259766 206.63491821 C356.66259766 207.07241821 356.66259766 207.07241821 358.41259766 208.63491821 C371.4184275 238.93681268 365.00139766 278.6906563 353.24853516 308.37319946 C349.18301429 318.12355884 344.14908364 327.65111206 338.25244141 336.41445923 C337.45181274 337.60688988 337.45181274 337.60688988 336.63500977 338.82341003 C336.02991577 339.72010658 336.02991577 339.72010658 335.41259766 340.63491821 C335.9561279 341.17383949 336.49965815 341.71276077 337.059659 342.268013 C350.29388794 355.39174299 363.51419464 368.52934887 376.71921253 381.68247223 C383.10544104 388.04293684 389.49626828 394.39864796 395.89819336 400.74331665 C401.47914664 406.27437975 407.05120715 411.81422351 412.61283892 417.36471701 C415.55706305 420.30243198 418.50550282 423.23561062 421.46463966 426.15830994 C424.25226901 428.91189144 427.02781717 431.67710266 429.7947216 434.45150375 C430.80982656 435.46523811 431.82919395 436.4747258 432.85318756 437.47948074 C439.52154923 444.02869417 444.77652388 449.67858791 444.91259766 459.50991821 C444.69463075 465.93994198 442.13912434 471.34102181 438.06103516 476.26773071 C433.4980102 480.52485456 427.80422969 482.47065113 421.67041016 482.76773071 C411.39571658 482.28388088 405.06127902 476.74452585 398.07861328 469.64151001 C397.39469513 468.95802994 396.71077698 468.27454987 396.00613403 467.57035828 C393.76984421 465.33199517 391.54434151 463.08322977 389.31884766 460.83413696 C387.761522 459.27121018 386.20352829 457.70894881 384.64489746 456.14732361 C380.56122618 452.05224436 376.48664815 447.94823383 372.41394043 443.84225464 C368.24970903 439.64723504 364.07688228 435.46078442 359.90478516 431.27359009 C351.73231953 423.06903176 343.56944111 414.85500598 335.41259766 406.63491821 C335.40895203 407.6650705 335.4053064 408.69522278 335.40155029 409.7565918 C335.36450446 419.49575079 335.30662746 429.23459639 335.22869492 438.97351646 C335.18929533 443.97964099 335.15707006 448.9855916 335.14160156 453.99185181 C335.12638535 458.82908432 335.09185215 463.66583844 335.04428864 468.50285721 C335.02952588 470.34224906 335.02155959 472.18170923 335.02071381 474.02116013 C335.00973581 485.93186224 334.92709952 496.9506185 326.20120239 506.11320496 C318.01216804 513.08029046 309.1826131 513.36890515 298.92041016 513.26382446 C297.44212672 513.2646548 295.9638434 513.26712041 294.48556519 513.27113342 C291.40757018 513.27397401 288.33030998 513.25945243 285.25244141 513.23184204 C281.31126587 513.19757984 277.37138692 513.20385289 273.43014717 513.22250462 C270.3862935 513.23307244 267.34274147 513.22414208 264.29891586 513.2091198 C262.84528372 513.20394795 261.39161998 513.20440769 259.9379921 513.21066475 C257.91141917 513.21612036 255.88483037 513.19288487 253.85839844 513.16836548 C252.70719513 513.1621669 251.55599182 513.15596832 250.36990356 513.14958191 C246.76698799 512.52256194 245.57733207 511.5401428 243.41259766 508.63491821 C242.91259766 505.13491821 242.91259766 505.13491821 243.41259766 501.63491821 C245.49809221 498.90479616 246.68341112 497.77243714 250.09310913 497.12939453 C251.62483261 497.12511948 251.62483261 497.12511948 253.1875 497.12075806 C254.34905609 497.10749481 255.51061218 497.09423157 256.70736694 497.08056641 C257.95845245 497.08561188 259.20953796 497.09065735 260.49853516 497.09585571 C262.46910085 497.0778367 264.43966652 497.05980796 266.41022682 497.04120827 C269.16938483 497.01995437 271.92845398 497.01657037 274.68768311 497.01327515 C279.50760438 497.00557 284.32737215 496.97853953 289.14712524 496.93829346 C291.71133595 496.91867965 294.27565041 496.9093268 296.8399353 496.91137695 C298.00779572 496.90441803 299.17565613 496.89745911 300.37890625 496.89028931 C301.40164642 496.88903046 302.4243866 496.88777161 303.4781189 496.88647461 C309.064934 496.4075483 312.78144886 494.93850197 316.41259766 490.63491821 C318.12999016 487.2001332 317.6805822 483.25086984 317.76416016 479.46621704 C317.78840057 478.51466232 317.81264099 477.5631076 317.83761597 476.5827179 C318.04965033 467.76720983 318.17399182 458.95013934 318.27191162 450.1326952 C318.33878441 444.21373306 318.43408788 438.29836325 318.59912109 432.3812561 C318.75816436 426.65323601 318.84184281 420.92848664 318.87469482 415.1984005 C318.89970472 413.02491162 318.95063662 410.85154645 319.02911377 408.67933083 C319.64592957 395.41049052 319.64592957 395.41049052 313.97119141 383.85742188 C310.42105178 380.07477029 306.57089099 376.73158479 302.41259766 373.63491821 C301.74349365 374.07972534 301.07438965 374.52453247 300.38500977 374.9828186 C264.52825517 398.63425505 222.71365624 408.05438444 180.38134766 399.67007446 C155.18481714 394.3181004 131.92667457 383.51994147 112.41259766 366.63491821 C111.61233154 365.94414185 111.61233154 365.94414185 110.79589844 365.2394104 C81.50768602 339.70059028 61.65464907 303.15666615 58.54882812 264.09194946 C56.81545991 232.8291937 56.81545991 232.8291937 60.41259766 225.63491821 C59.49969971 225.65586548 58.58680176 225.67681274 57.64624023 225.69839478 C54.24493231 225.76674538 50.84435866 225.8168015 47.44262695 225.85464478 C45.97310845 225.87470646 44.50366925 225.90196299 43.03442383 225.93667603 C40.91679278 225.98543963 38.80022079 226.00793982 36.68212891 226.02554321 C35.40958252 226.04649048 34.13703613 226.06743774 32.82592773 226.08901978 C28.83933464 225.55865262 27.21693841 224.46027511 24.41259766 221.63491821 C23.78369141 219.63491821 23.78369141 219.63491821 23.85009766 217.63491821 C23.84816406 216.64491821 23.84816406 216.64491821 23.84619141 215.63491821 C24.69361094 212.64265061 25.95331062 211.54161389 28.41259766 209.63491821 C31.21955768 209.21705119 33.65111707 209.03017508 36.45947266 209.02554321 C37.23067444 209.00900696 38.00187622 208.9924707 38.79644775 208.97543335 C41.2519122 208.92697228 43.70675749 208.90558784 46.16259766 208.88491821 C47.83059752 208.85675676 49.49856857 208.82682907 51.16650391 208.79507446 C55.24848416 208.7212145 59.33012111 208.67162885 63.41259766 208.63491821 C63.76193359 207.57530884 64.11126953 206.51569946 64.47119141 205.42398071 C64.93074754 204.03593363 65.3903873 202.64791423 65.85009766 201.25991821 C66.08019531 200.56124634 66.31029297 199.86257446 66.54736328 199.14273071 C68.29931641 193.86148071 68.29931641 193.86148071 69.41259766 191.63491821 C68.1915332 191.65586548 66.97046875 191.67681274 65.71240234 191.69839478 C61.18013241 191.7708198 56.64791358 191.8167271 52.11523438 191.85464478 C50.15388384 191.87475454 48.19259322 191.90204639 46.23144531 191.93667603 C43.41147071 191.98522242 40.59228901 192.00789307 37.77197266 192.02554321 C36.45770294 192.05651093 36.45770294 192.05651093 35.11688232 192.08810425 C29.02391511 192.09034766 29.02391511 192.09034766 25.86303711 189.73550415 C24.30680827 187.48170968 23.84479683 186.34894151 23.85009766 183.63491821 C23.82818359 182.97491821 23.80626953 182.31491821 23.78369141 181.63491821 C24.82494266 178.32360988 26.45116618 177.41801412 29.41259766 175.63491821 C32.99249015 175.15933209 36.51809461 175.33998563 40.11962891 175.48257446 C42.2543595 175.51193579 44.38912943 175.53854241 46.52392578 175.56265259 C49.87669597 175.62034469 53.22497906 175.69741376 56.57592773 175.82315063 C68.37972772 176.8364776 68.37972772 176.8364776 79.20648193 173.35678101 C82.32642679 169.9063747 83.86923731 166.00347108 85.41259766 161.63491821 C86.07259766 160.64491821 86.73259766 159.65491821 87.41259766 158.63491821 C86.34299805 158.62033569 85.27339844 158.60575317 84.17138672 158.59072876 C80.19774172 158.5326952 76.22466041 158.45546302 72.25146484 158.37246704 C70.53280801 158.3392414 68.81404267 158.31120205 67.09521484 158.28848267 C64.62241443 158.2548926 62.1506061 158.20257643 59.67822266 158.14663696 C58.91141174 158.14024704 58.14460083 158.13385712 57.35455322 158.12727356 C54.1471304 158.03914991 51.79106521 157.84313551 48.95458984 156.28262329 C46.65355461 153.82383818 46.47909619 151.95984469 46.41259766 148.63491821 C48.01671614 145.10585755 49.15419127 143.80718914 52.41259766 141.63491821 C54.65568542 141.41027832 54.65568542 141.41027832 57.30786133 141.44302368 C58.80037666 141.45195145 58.80037666 141.45195145 60.32304382 141.46105957 C61.39802628 141.4746048 62.47300873 141.48815002 63.58056641 141.50210571 C65.85856254 141.50129878 68.13655864 141.49863558 70.41455078 141.49429321 C74.00511048 141.49625513 77.59404338 141.50984068 81.18432617 141.55581665 C84.65071987 141.59499304 88.11406654 141.58369798 91.58056641 141.56460571 C92.6454277 141.59029633 93.710289 141.61598694 94.80741882 141.64245605 C100.61502595 141.56798509 103.74349672 140.95616246 107.92407227 136.76773071 C109.09110587 135.39367582 110.25419394 134.01625637 111.41259766 132.63491821 C113.78096113 130.54947925 116.25659092 128.64344297 118.78759766 126.75991821 C119.46749756 126.25380005 120.14739746 125.74768188 120.84790039 125.22622681 C154.00224704 101.13248461 196.05854594 91.514678 236.53759766 97.75991821 C266.5350094 103.07554211 295.88530103 116.77829902 317.41259766 138.63491821 C317.48270205 123.8575544 317.53559281 109.08021261 317.56803417 94.30271626 C317.58349815 87.44114432 317.60457856 80.57967575 317.63891602 73.71817017 C317.67202926 67.09813352 317.68944448 60.47817615 317.69722939 53.85805321 C317.70277825 51.33065283 317.71361361 48.80325842 317.72978783 46.2759037 C317.75152167 42.73960218 317.7545662 39.20374633 317.75317383 35.66738892 C317.76395966 34.6193811 317.77474548 33.57137329 317.78585815 32.49160767 C317.81243578 25.54480716 317.81243578 25.54480716 314.41259766 19.63491821 C310.01648546 16.70417675 306.13563027 16.51016532 300.94149876 16.50628376 C299.30188705 16.50144709 299.30188705 16.50144709 297.62915188 16.49651271 C295.83617347 16.49883561 295.83617347 16.49883561 294.00697327 16.50120544 C292.7328662 16.49893989 291.45875914 16.49667433 290.14604276 16.49434012 C286.61162566 16.48822302 283.07723222 16.48835561 279.54281104 16.4895345 C275.73020222 16.48973852 271.917601 16.48421961 268.10499573 16.47947693 C260.63663864 16.47117063 253.16828944 16.46842211 245.69992811 16.46786455 C239.63030308 16.46738944 233.56068065 16.46533495 227.49105644 16.46216393 C210.28568098 16.45335791 193.08031176 16.44874454 175.87493403 16.4494944 C174.94739476 16.44953436 174.0198555 16.44957431 173.06420898 16.44961548 C172.13553855 16.44965636 171.20686811 16.44969724 170.25005614 16.44973936 C155.19387655 16.45014596 140.13772195 16.44057277 125.08154959 16.42647711 C109.62505093 16.41212072 94.16856446 16.4052065 78.71205896 16.40607089 C70.03312178 16.40640308 61.3542108 16.40364613 52.67527962 16.39289284 C45.28719646 16.3837976 37.8991514 16.38160459 30.51106507 16.38840226 C26.7412393 16.39167223 22.97148665 16.39170698 19.20166779 16.38304901 C15.11612478 16.37376235 11.03075187 16.37994747 6.94520569 16.38768005 C5.75211747 16.38253649 4.55902925 16.37739293 3.32978684 16.3720935 C-5.95514584 16.30435069 -5.95514584 16.30435069 -13.89990234 20.63491821 C-16.31219609 23.49393303 -16.71110342 25.07360008 -16.71337891 28.72988892 C-16.71718567 29.57449173 -16.72099243 30.41909454 -16.72491455 31.28929138 C-16.72594177 32.20385605 -16.72696899 33.11842072 -16.72802734 34.06069946 C-16.74635578 35.9910498 -16.76592612 37.92138867 -16.78662109 39.85171509 C-16.81559399 42.90000719 -16.83740237 45.94756344 -16.83789062 48.9960022 C-16.84122568 51.93490138 -16.87578021 54.87209619 -16.91552734 57.81069946 C-16.90845764 58.71919144 -16.90138794 59.62768341 -16.894104 60.56370544 C-16.98062968 65.06545609 -17.12784187 67.03473529 -19.94189453 70.70986938 C-22.58740234 72.63491821 -22.58740234 72.63491821 -25.58740234 73.25991821 C-29.75114562 72.3924717 -31.0101936 71.01528077 -33.58740234 67.63491821 C-34.31306934 64.3057336 -34.26487931 61.05098666 -34.21630859 57.65444946 C-34.21872055 56.68641891 -34.22113251 55.71838837 -34.22361755 54.72102356 C-34.22263946 52.67429508 -34.20925501 50.62754003 -34.18432617 48.58096313 C-34.15020498 45.47496679 -34.16362317 42.3718479 -34.18310547 39.26577759 C-34.17620092 37.27032293 -34.16652305 35.27487556 -34.15380859 33.27944946 C-34.15876846 32.36242752 -34.16372833 31.44540558 -34.1688385 30.50059509 C-34.01495566 21.91031152 -31.58567032 13.56718091 -25.46061039 7.28116071 C-17.84629165 0.58942397 -9.76623477 -0.08782584 0 0 Z M321.46728516 355.38491821 C320.38833984 356.49866821 320.38833984 356.49866821 319.28759766 357.63491821 C318.56314453 358.37741821 317.83869141 359.11991821 317.09228516 359.88491821 C316.53798828 360.46241821 315.98369141 361.03991821 315.41259766 361.63491821 C316.83905546 364.89358182 318.57963927 367.03740361 321.10791016 369.52554321 C321.82333984 370.23452759 322.53876953 370.94351196 323.27587891 371.67398071 C324.02224609 372.40359009 324.76861328 373.13319946 325.53759766 373.88491821 C326.29169922 374.62999634 327.04580078 375.37507446 327.82275391 376.14273071 C329.68160538 377.97805242 331.5449677 379.80853731 333.41259766 381.63491821 C334.52125751 380.72369094 335.62431984 379.80565162 336.72509766 378.88491821 C337.33998047 378.37444946 337.95486328 377.86398071 338.58837891 377.33804321 C340.47192095 375.57953287 341.92833422 373.73572185 343.41259766 371.63491821 C340.4623404 368.62688249 337.50110097 365.62990032 334.53759766 362.63491821 C333.69583984 361.77640259 332.85408203 360.91788696 331.98681641 360.03335571 C331.18115234 359.22124634 330.37548828 358.40913696 329.54541016 357.57241821 C328.80178223 356.81831665 328.0581543 356.06421509 327.29199219 355.28726196 C324.6686466 352.98084433 324.0605747 353.0519991 321.46728516 355.38491821 Z M352.34619141 385.60366821 C351.52248047 386.43898071 350.69876953 387.27429321 349.85009766 388.13491821 C349.02380859 388.97023071 348.19751953 389.80554321 347.34619141 390.66616821 C346.3890625 391.64069946 346.3890625 391.64069946 345.41259766 392.63491821 C349.43782296 397.45096932 353.63586205 402.0189214 358.05712891 406.47232056 C358.69210297 407.11547211 359.32707703 407.75862366 359.98129272 408.42126465 C362.05956373 410.5241211 364.14175899 412.6230203 366.22509766 414.72085571 C366.94025543 415.44133717 367.65541321 416.16181862 368.39224243 416.90413284 C372.16957635 420.70806559 375.95048809 424.50840471 379.73388672 428.30630493 C382.86007484 431.44588843 385.97881241 434.59260116 389.09130859 437.74575806 C392.86080054 441.56447447 396.64233279 445.37085706 400.43295288 449.16859818 C401.87250066 450.61486346 403.30778646 452.06538401 404.73867798 453.52021408 C406.73692513 455.55000415 408.75029024 457.56353143 410.76806641 459.57388306 C411.35421722 460.17643921 411.94036804 460.77899536 412.54428101 461.39981079 C415.96591264 464.77014993 418.36319548 466.64900123 423.41259766 466.63491821 C426.49593099 464.71825155 426.49593099 464.71825155 428.41259766 461.63491821 C428.48649659 457.44345108 427.29392436 455.18712447 424.56567383 452.17999268 C423.29182555 450.88865119 422.00403442 449.61097411 420.70556641 448.34439087 C419.65437119 447.28969101 419.65437119 447.28969101 418.5819397 446.21368408 C416.26646506 443.89659666 413.93367851 441.5978204 411.60009766 439.29898071 C409.98864755 437.69431916 408.37822788 436.0886222 406.76879883 434.48193359 C403.39675501 431.12056406 400.0168661 427.76737187 396.63037109 424.42056274 C392.27850521 420.11968653 387.93970963 415.80593064 383.6058197 411.48694801 C379.48281553 407.3786957 375.3545842 403.27571589 371.22509766 399.17398071 C370.43203217 398.385826 369.63896667 397.59767128 368.8218689 396.78563309 C366.59061545 394.57057062 364.35580948 392.35916529 362.11962891 390.14907837 C361.45154205 389.48525146 360.7834552 388.82142456 360.09512329 388.13748169 C356.46969721 383.48534473 356.46969721 383.48534473 352.34619141 385.60366821 Z " fill="#112339" transform="translate(50.58740234375,-0.634918212890625)"/>
<path d="M0 0 C23.9069235 21.5308649 38.6859966 52.14265683 40.38671875 84.27807617 C41.4204974 109.92612439 35.93074496 135.05632516 22.265625 156.98999023 C21.91193848 157.56233398 21.55825195 158.13467773 21.19384766 158.72436523 C4.01133733 185.91023457 -24.20883826 205.1121941 -55.4453125 212.36499023 C-90.64178748 219.0531565 -124.76095724 212.44027034 -154.41796875 192.40795898 C-160.00113028 188.4591322 -164.84781825 183.75071291 -169.734375 178.98999023 C-170.50136719 178.30807617 -171.26835937 177.62616211 -172.05859375 176.92358398 C-192.73730383 157.95263093 -204.4970886 127.19646501 -205.85107422 99.61254883 C-207.18133295 65.07214927 -196.57902152 33.51653741 -173.359375 7.73999023 C-155.78279317 -11.09691592 -133.6985277 -23.09588311 -108.734375 -29.01000977 C-107.7959375 -29.2355957 -106.8575 -29.46118164 -105.890625 -29.69360352 C-67.95007961 -37.08793024 -28.77489685 -25.10991236 0 0 Z M-151.734375 9.98999023 C-152.54132813 10.65385742 -153.34828125 11.31772461 -154.1796875 12.00170898 C-174.84133455 29.52200844 -187.03413835 55.20828825 -189.734375 81.98999023 C-191.7680016 110.11887765 -183.78719117 138.80868372 -165.1796875 160.33374023 C-145.48572531 181.72654261 -119.59376674 197.75229524 -89.734375 198.98999023 C-88.75082031 199.04155273 -87.76726562 199.09311523 -86.75390625 199.14624023 C-59.66880649 199.89427521 -31.61195879 190.73781888 -11.734375 171.98999023 C-11.2492041 171.54429687 -10.7640332 171.09860352 -10.26416016 170.6394043 C10.57472279 151.40452786 23.27546404 125.0059777 24.484375 96.56030273 C25.20952953 69.77902755 17.30437169 43.20461687 -0.734375 22.98999023 C-1.39695312 22.18561523 -2.05953125 21.38124023 -2.7421875 20.55249023 C-19.5571441 0.69719093 -44.83180822 -12.40010867 -70.734375 -15.01000977 C-100.62622581 -16.44262788 -128.81395816 -10.19078082 -151.734375 9.98999023 Z " fill="#112339" transform="translate(344.734375,157.010009765625)"/>
<path d="M0 0 C4.05689697 0.84518687 5.40108967 2.43735591 8 5.625 C8.62395251 8.7729907 8.62395251 8.7729907 8.62247658 12.39513397 C8.62903538 13.06631282 8.63559419 13.73749166 8.64235175 14.42900926 C8.65828065 16.68271689 8.63854279 18.93469528 8.61904907 21.18835449 C8.62321143 22.81840932 8.6295757 24.44845976 8.63795507 26.07849836 C8.65466623 30.56136453 8.64025514 35.04367812 8.62089396 39.52651381 C8.60548137 44.35958266 8.61891011 49.19257919 8.62898254 54.02565002 C8.64260827 62.40156124 8.63828473 70.77730899 8.62215042 79.1532135 C8.59910046 91.26883462 8.60638316 103.38429164 8.62168162 115.49991816 C8.6459635 135.16320812 8.65015458 154.82644563 8.63964844 174.48974609 C8.63902461 175.66689987 8.63840079 176.84405364 8.63775806 178.05687875 C8.63648674 180.43938215 8.6352125 182.82188555 8.63393535 185.20438895 C8.63330297 186.38561918 8.63267059 187.56684942 8.63201904 188.78387451 C8.6313809 189.96615864 8.63074275 191.14844277 8.63008527 192.36655369 C8.62327951 205.4977868 8.62128832 218.62901917 8.62109375 231.76025391 C8.6210595 233.52383784 8.6210595 233.52383784 8.62102456 235.32304972 C8.62109375 254.91200697 8.63311156 274.50094427 8.65205324 294.08989191 C8.66302952 306.17825913 8.6621667 318.2665221 8.6461135 330.35488427 C8.63566361 338.63397812 8.63540661 346.91302998 8.64323165 355.19212663 C8.64732768 359.97245962 8.64634685 364.7526592 8.63229942 369.53297615 C8.61950365 373.90627951 8.62035328 378.27935678 8.63217191 382.65266091 C8.63397854 384.23738407 8.63066094 385.82212278 8.62178953 387.40682214 C8.6104629 389.5564494 8.61750956 391.70525878 8.6292057 393.85486603 C8.62839394 395.05017331 8.62758218 396.24548059 8.62674582 397.4770093 C9.04223258 400.9811856 9.88411874 402.82573464 12 405.625 C17.40662377 409.22941585 22.97890533 408.76890113 29.26808167 408.75630188 C30.20466502 408.75841759 31.14124837 408.76053331 32.10621303 408.76271313 C35.24603202 408.76870697 38.38581075 408.76771343 41.52563477 408.7668457 C43.77601184 408.7698775 46.02638831 408.77339902 48.27676392 408.77737427 C53.12326183 408.78526036 57.96975239 408.79040702 62.81625557 408.79366493 C70.47550335 408.79957314 78.13470462 408.8161104 85.79393005 408.83500671 C88.41523454 408.84134387 91.03653905 408.8476695 93.65784359 408.85398388 C94.97046889 408.85714969 96.28309419 408.8603155 97.63549602 408.86357725 C104.4226032 408.87973653 111.20971357 408.89428088 117.99682617 408.90795898 C118.67780021 408.90933486 119.35877424 408.91071073 120.06038385 408.91212829 C131.105422 408.93407717 142.15044868 408.94481982 153.19550479 408.95232973 C164.53654198 408.96039638 175.87746291 408.98393437 187.21845096 409.0202834 C193.58569386 409.04008521 199.95276408 409.05243482 206.32003975 409.04744911 C212.3045264 409.04281993 218.28868512 409.05651322 224.27310562 409.08446121 C226.47255947 409.09140133 228.67204703 409.09146948 230.87150002 409.08426094 C233.86769549 409.07543069 236.86279582 409.0909717 239.85890198 409.11274719 C240.73486717 409.10430466 241.61083237 409.09586212 242.51334196 409.08716375 C248.35705674 409.16602538 248.35705674 409.16602538 251.54006863 411.4382658 C253.68905978 414.65709686 253.53980498 416.84636516 253 420.625 C251.55694771 422.81158352 251.55694771 422.81158352 249 424.625 C245.86635455 425.223803 242.77111717 425.16868323 239.58883667 425.1396637 C238.14259074 425.15008199 238.14259074 425.15008199 236.66712773 425.16071075 C233.42742855 425.17904699 230.18845619 425.16869763 226.94873047 425.15844727 C224.62941437 425.1655026 222.31010287 425.17424599 219.99079895 425.18455505 C213.68263924 425.20710817 207.37472975 425.20409445 201.06654501 425.19523358 C195.13497624 425.18948528 189.20344416 425.19916066 183.27188148 425.20752143 C170.8002919 425.2241073 158.32881538 425.21537606 145.85723259 425.19853585 C134.46042376 425.18385793 123.06387902 425.19843881 111.66710423 425.22730602 C99.95771204 425.25674328 88.24844154 425.26765846 76.53901398 425.25812382 C69.96809015 425.25319667 63.39737131 425.25539834 56.82647324 425.27591133 C50.64249218 425.29429049 44.45900029 425.28828155 38.27504539 425.26371193 C36.0087642 425.25871026 33.74244561 425.26217696 31.47619438 425.27486038 C28.37459293 425.29084143 25.2745921 425.27579093 22.17306519 425.25318909 C21.28276733 425.26502482 20.39246948 425.27686054 19.4751929 425.28905493 C12.13837028 425.18094417 5.8505277 422.86334769 0.19061744 418.10328394 C-8.32338965 409.04455994 -8.58158683 398.16178139 -8.5146637 386.38444519 C-8.51999471 384.74182602 -8.52706359 383.09921174 -8.53571075 381.45660669 C-8.55429023 376.96232279 -8.54804945 372.46836946 -8.53755772 367.9740721 C-8.53055271 363.11995384 -8.54657316 358.2659026 -8.55955505 353.4118042 C-8.58117547 343.91174019 -8.58107368 334.41179605 -8.57292951 324.91171553 C-8.566627 317.19268641 -8.56776884 309.47369222 -8.57420158 301.75466347 C-8.57510324 300.65564357 -8.57600489 299.55662367 -8.57693387 298.42430014 C-8.57878507 296.19165512 -8.58064763 293.95901012 -8.58252143 291.72636513 C-8.59909184 270.80151126 -8.59038579 249.87672487 -8.57353585 228.95187507 C-8.55882629 209.79874506 -8.57348634 190.64577175 -8.60230602 171.49266192 C-8.63167729 151.82669825 -8.64267977 132.16080697 -8.63312382 112.49482232 C-8.63210125 110.27196746 -8.63110664 108.04911259 -8.6301403 105.82625771 C-8.62966391 104.73255937 -8.62918752 103.63886103 -8.6286967 102.51202032 C-8.62653029 94.79824537 -8.63634821 87.08453881 -8.65091133 79.37077904 C-8.66840014 69.97643926 -8.6683664 60.58229959 -8.64555968 51.1879678 C-8.63438838 46.39335036 -8.63132038 41.59908594 -8.64986038 36.80448341 C-8.66660353 32.41826636 -8.66039857 28.03271193 -8.63564359 23.64653829 C-8.63073972 22.05725968 -8.63433174 20.46792824 -8.64713103 18.8786936 C-8.66324807 16.72245817 -8.64873302 14.56853232 -8.62641239 12.41240215 C-8.6261427 11.21372971 -8.62587301 10.01505727 -8.62559515 8.78006142 C-7.6415573 3.81726745 -4.95228471 1.03172598 0 0 Z " fill="#112339" transform="translate(25,87.375)"/>
<path d="M0 0 C1.32491203 -0.01268921 1.32491203 -0.01268921 2.67658997 -0.02563477 C3.64291855 -0.01956207 4.60924713 -0.01348938 5.6048584 -0.00723267 C6.62460251 -0.01248962 7.64434662 -0.01774658 8.69499207 -0.02316284 C12.07330542 -0.03639079 15.45114944 -0.02761465 18.82946777 -0.01748657 C21.17212006 -0.0195065 23.51477174 -0.02241725 25.85742188 -0.02618408 C30.77020242 -0.03061123 35.68281949 -0.02416366 40.59558105 -0.01016235 C46.90097313 0.00692957 53.20598215 -0.0029095 59.51136017 -0.02087975 C64.34969991 -0.03170692 69.18794845 -0.02827611 74.02629089 -0.02049637 C76.35157822 -0.01849142 78.67687375 -0.02096393 81.00215149 -0.02793503 C84.24885067 -0.03553181 87.49492467 -0.02396972 90.74157715 -0.00723267 C92.19107002 -0.01634171 92.19107002 -0.01634171 93.66984558 -0.02563477 C94.55312027 -0.01717529 95.43639496 -0.00871582 96.34643555 0 C97.49790195 0.00169662 97.49790195 0.00169662 98.67263031 0.00342751 C101.21297693 0.48280687 102.1027636 1.36423006 103.67321777 3.38095093 C104.07165527 5.53720093 104.07165527 5.53720093 104.04821777 7.88095093 C104.05981934 9.04110718 104.05981934 9.04110718 104.07165527 10.22470093 C103.57142241 12.93184347 102.80923474 13.68116031 100.67321777 15.38095093 C98.67263031 15.75847435 98.67263031 15.75847435 96.34643555 15.76190186 C95.46316086 15.77036133 94.57988617 15.7788208 93.66984558 15.78753662 C92.703517 15.78146393 91.73718842 15.77539124 90.74157715 15.76913452 C89.72183304 15.77439148 88.70208893 15.77964844 87.65144348 15.7850647 C84.27313013 15.79829265 80.89528611 15.7895165 77.51696777 15.77938843 C75.17431548 15.78140835 72.8316638 15.78431911 70.48901367 15.78808594 C65.57623312 15.79251309 60.66361606 15.78606552 55.75085449 15.77206421 C49.44546241 15.75497229 43.14045339 15.76481136 36.83507538 15.7827816 C31.99673564 15.79360877 27.1584871 15.79017797 22.32014465 15.78239822 C19.99485733 15.78039327 17.6695618 15.78286578 15.34428406 15.78983688 C12.09758488 15.79743366 8.85151087 15.78587158 5.6048584 15.76913452 C4.15536552 15.77824356 4.15536552 15.77824356 2.67658997 15.78753662 C1.79331528 15.77907715 0.91004059 15.77061768 0 15.76190186 C-1.15146641 15.76020524 -1.15146641 15.76020524 -2.32619476 15.75847435 C-4.86654138 15.27909498 -5.75632805 14.3976718 -7.32678223 12.38095093 C-7.72521973 10.22470093 -7.72521973 10.22470093 -7.70178223 7.88095093 C-7.7095166 7.10751343 -7.71725098 6.33407593 -7.72521973 5.53720093 C-6.90450355 1.09567809 -4.21976608 0.00621757 0 0 Z " fill="#11233A" transform="translate(82.3267822265625,428.6190490722656)"/>
<path d="M0 0 C1.32491203 -0.01268921 1.32491203 -0.01268921 2.67658997 -0.02563477 C3.64291855 -0.01956207 4.60924713 -0.01348938 5.6048584 -0.00723267 C6.62460251 -0.01248962 7.64434662 -0.01774658 8.69499207 -0.02316284 C12.07330542 -0.03639079 15.45114944 -0.02761465 18.82946777 -0.01748657 C21.17212006 -0.0195065 23.51477174 -0.02241725 25.85742188 -0.02618408 C30.77020242 -0.03061123 35.68281949 -0.02416366 40.59558105 -0.01016235 C46.90097313 0.00692957 53.20598215 -0.0029095 59.51136017 -0.02087975 C64.34969991 -0.03170692 69.18794845 -0.02827611 74.02629089 -0.02049637 C76.35157822 -0.01849142 78.67687375 -0.02096393 81.00215149 -0.02793503 C84.24885067 -0.03553181 87.49492467 -0.02396972 90.74157715 -0.00723267 C92.19107002 -0.01634171 92.19107002 -0.01634171 93.66984558 -0.02563477 C94.55312027 -0.01717529 95.43639496 -0.00871582 96.34643555 0 C97.49790195 0.00169662 97.49790195 0.00169662 98.67263031 0.00342751 C101.21297693 0.48280687 102.1027636 1.36423006 103.67321777 3.38095093 C104.07165527 5.53720093 104.07165527 5.53720093 104.04821777 7.88095093 C104.05981934 9.04110718 104.05981934 9.04110718 104.07165527 10.22470093 C103.57142241 12.93184347 102.80923474 13.68116031 100.67321777 15.38095093 C98.67263031 15.75847435 98.67263031 15.75847435 96.34643555 15.76190186 C95.46316086 15.77036133 94.57988617 15.7788208 93.66984558 15.78753662 C92.703517 15.78146393 91.73718842 15.77539124 90.74157715 15.76913452 C89.72183304 15.77439148 88.70208893 15.77964844 87.65144348 15.7850647 C84.27313013 15.79829265 80.89528611 15.7895165 77.51696777 15.77938843 C75.17431548 15.78140835 72.8316638 15.78431911 70.48901367 15.78808594 C65.57623312 15.79251309 60.66361606 15.78606552 55.75085449 15.77206421 C49.44546241 15.75497229 43.14045339 15.76481136 36.83507538 15.7827816 C31.99673564 15.79360877 27.1584871 15.79017797 22.32014465 15.78239822 C19.99485733 15.78039327 17.6695618 15.78286578 15.34428406 15.78983688 C12.09758488 15.79743366 8.85151087 15.78587158 5.6048584 15.76913452 C4.15536552 15.77824356 4.15536552 15.77824356 2.67658997 15.78753662 C1.79331528 15.77907715 0.91004059 15.77061768 0 15.76190186 C-1.15146641 15.76020524 -1.15146641 15.76020524 -2.32619476 15.75847435 C-4.86654138 15.27909498 -5.75632805 14.3976718 -7.32678223 12.38095093 C-7.72521973 10.22470093 -7.72521973 10.22470093 -7.70178223 7.88095093 C-7.7095166 7.10751343 -7.71725098 6.33407593 -7.72521973 5.53720093 C-6.90450355 1.09567809 -4.21976608 0.00621757 0 0 Z " fill="#11233A" transform="translate(82.3267822265625,63.619049072265625)"/>
</svg>
