<?xml version="1.0" encoding="UTF-8"?>
<svg version="1.1" xmlns="http://www.w3.org/2000/svg" width="512" height="512">
<path d="M0 0 C0.77420792 -0.00979385 1.54841583 -0.01958771 2.34608459 -0.02967834 C19.19596841 -0.19890696 35.37752509 -0.10460904 51.77734375 4.23828125 C52.6075 4.44727051 53.43765625 4.65625977 54.29296875 4.87158203 C97.42650854 15.91132045 135.50541039 44.63235784 158.34179688 82.85693359 C179.63025143 119.82155187 187.86264868 164.27239932 178.77734375 206.23828125 C178.61105469 207.0163916 178.44476563 207.79450195 178.2734375 208.59619141 C173.24386007 231.29914508 163.03889631 251.04733222 151.77734375 271.23828125 C150.91060809 272.80682215 150.04462915 274.37578162 149.1796875 275.9453125 C147.18904516 279.54975593 145.183168 283.14548447 143.17333984 286.73925781 C140.3248018 291.83852949 137.48933174 296.94507769 134.65234375 302.05078125 C134.0169165 303.19409912 133.38148926 304.33741699 132.72680664 305.51538086 C127.72251106 314.52295622 122.74258731 323.54385371 117.76873779 332.56826782 C112.95522255 341.30107703 108.12424284 350.02393801 103.27734375 358.73828125 C98.11498758 368.02088831 92.9689874 377.31229699 87.83984375 386.61328125 C87.50840363 387.2142865 87.1769635 387.81529175 86.83547974 388.43450928 C84.48218834 392.70211395 82.12967674 396.97014825 79.77734375 401.23828125 C77.09037992 406.11357698 74.40306983 410.98868139 71.71484375 415.86328125 C71.38332306 416.46444763 71.05180237 417.06561401 70.7102356 417.68499756 C65.30230622 427.4898623 59.8698636 437.28093646 54.42602539 447.06591797 C50.84195539 453.51131522 47.27137906 459.96388635 43.7154541 466.42483521 C41.04185387 471.28259872 38.3626512 476.13723637 35.67858887 480.98922729 C34.07325783 483.89146191 32.47120789 486.79542025 30.87402344 489.70214844 C29.10031488 492.92732783 27.31534379 496.1460086 25.52734375 499.36328125 C25.00253418 500.32331055 24.47772461 501.28333984 23.93701172 502.27246094 C23.2005542 503.58972168 23.2005542 503.58972168 22.44921875 504.93359375 C22.02737305 505.69687988 21.60552734 506.46016602 21.17089844 507.24658203 C19.06867055 510.25113268 16.99506449 512.0006772 13.375 512.70703125 C12.53839844 512.71734375 11.70179688 512.72765625 10.83984375 512.73828125 C10.00582031 512.76921875 9.17179688 512.80015625 8.3125 512.83203125 C3.82627301 511.78132786 1.75673494 508.76117231 -0.62475586 505.05810547 C-2.20915026 502.37359038 -3.72344518 499.65877531 -5.22265625 496.92578125 C-5.78662109 495.91322266 -6.35058594 494.90066406 -6.93164062 493.85742188 C-11.46983542 485.68262703 -15.91367503 477.45610753 -20.34570312 469.22338867 C-24.05498607 462.34640926 -27.85812006 455.52908884 -31.72265625 448.73828125 C-36.71771565 439.96090524 -41.56181387 431.11167346 -46.34765625 422.21875 C-50.05711268 415.34377187 -53.85894625 408.52763704 -57.72265625 401.73828125 C-62.71771565 392.96090524 -67.56181387 384.11167346 -72.34765625 375.21875 C-76.05711268 368.34377187 -79.85894625 361.52763704 -83.72265625 354.73828125 C-88.71771565 345.96090524 -93.56181387 337.11167346 -98.34765625 328.21875 C-102.05711268 321.34377187 -105.85894625 314.52763704 -109.72265625 307.73828125 C-114.71409341 298.96727028 -119.56061137 290.12748207 -124.33447266 281.23632812 C-127.60354852 275.16674064 -130.96541238 269.16132559 -134.40405273 263.1862793 C-140.00481988 253.43721439 -145.2356655 243.76299503 -149.22265625 233.23828125 C-149.48626953 232.54492676 -149.74988281 231.85157227 -150.02148438 231.13720703 C-165.49057266 189.60363687 -164.41473888 141.72592735 -146.14453125 101.21044922 C-125.84493842 57.78351307 -90.86779537 25.28517461 -45.80834961 8.68432617 C-31.3091519 3.64335498 -15.36621814 0.16056153 0 0 Z M-51.62890625 112.80078125 C-67.46110429 131.45241182 -76.18514361 153.65267568 -74.22265625 178.23828125 C-71.44040549 201.37733336 -60.86332283 221.73480799 -43.05859375 237.046875 C-24.85074281 251.116578 -2.71367315 258.04788842 20.30859375 255.77734375 C44.30192654 252.04865014 65.66103241 240.24329828 80.08984375 220.55078125 C87.52859124 209.92862037 92.31418526 197.94817905 94.77734375 185.23828125 C95.00421875 184.12453125 95.23109375 183.01078125 95.46484375 181.86328125 C97.55006855 157.67467362 91.60344083 136.41851092 76.77734375 117.23828125 C76.07738281 116.26375 76.07738281 116.26375 75.36328125 115.26953125 C62.83065688 98.96943084 40.73416311 88.84876985 20.77734375 86.23828125 C-6.51552018 84.63189407 -32.49447086 92.42385005 -51.62890625 112.80078125 Z " fill="#112339" transform="translate(245.22265625,-0.23828125)"/>
</svg>
