<?xml version="1.0" encoding="UTF-8"?>
<svg version="1.1" xmlns="http://www.w3.org/2000/svg" width="512" height="512">
<path d="M0 0 C0.81082031 0.04382812 1.62164062 0.08765625 2.45703125 0.1328125 C7.73863987 1.56844288 11.34799865 4.61683294 14.35992432 9.13082886 C14.99295859 10.3682243 15.60685909 11.6155432 16.20410156 12.87060547 C16.54833664 13.55615509 16.89257172 14.24170471 17.24723816 14.94802856 C18.37492743 17.20457272 19.47649394 19.47282337 20.578125 21.7421875 C21.3697855 23.33980021 22.16300831 24.93663959 22.95770264 26.53274536 C25.04756046 30.741092 27.11530742 34.95993778 29.17877197 39.18127441 C31.2421142 43.39200133 33.3273662 47.59183822 35.41015625 51.79296875 C39.24584907 59.54284993 43.0774639 67.29453405 46.84695435 75.07687378 C48.50243958 78.49099792 50.19901602 81.8817958 51.91256714 85.26712036 C56.30437936 94.0593597 60.27134878 102.57524578 62.94844246 112.05394363 C67.01281104 126.30512813 72.22476611 141.35379557 84.1875 150.875 C104.29994852 161.54353298 130.36705721 162.06410433 152.60343099 164.01762223 C161.4847736 164.80631916 170.33121391 165.84699832 179.18340564 166.90874839 C189.99573088 168.20356294 200.8100032 169.46201331 211.64779663 170.52536011 C212.79202162 170.63765972 212.79202162 170.63765972 213.95936227 170.75222802 C217.51449806 171.09869874 221.07021862 171.43671903 224.62724304 171.76321411 C246.24027009 173.81266448 246.24027009 173.81266448 252.1875 180.875 C254.26142236 184.13899191 254.51323757 186.84995703 254.5625 190.6875 C254.59085938 191.68394531 254.61921875 192.68039063 254.6484375 193.70703125 C253.62368293 200.7500478 249.41483288 204.99603179 244.25 209.5 C235.278641 217.58183091 226.82380557 226.17314351 218.33108521 234.75054932 C217.08190651 236.01210891 215.83174744 237.27269858 214.58056641 238.53227234 C213.42873107 239.69190966 212.27903966 240.85368271 211.13208008 242.0181427 C208.2620123 244.90589308 205.32580842 247.65709431 202.24389648 250.31860352 C198.20732165 253.81134262 194.43596434 257.51493955 190.6875 261.3125 C190.00751953 261.99626709 189.32753906 262.68003418 188.62695312 263.38452148 C186.47799074 265.54557055 184.33232721 267.70984726 182.1875 269.875 C179.35716163 272.73216017 176.52337327 275.58583454 173.6875 278.4375 C172.73713867 279.40030884 172.73713867 279.40030884 171.76757812 280.38256836 C165.76857559 286.41383206 159.60093622 291.99692975 152.6015625 296.8515625 C146.26010125 301.71791668 140.88855481 306.75367234 137.1875 313.875 C136.60500237 319.30818043 137.7365758 324.16092494 138.9375 329.41796875 C139.25226279 331.00161344 139.56057866 332.58655008 139.8631897 334.17256165 C140.54957384 337.74148705 141.26444173 341.30327796 141.9944458 344.86352539 C143.31839797 351.41928694 144.46551475 358.00211807 145.59521484 364.59375 C145.80153849 365.79740456 146.00786213 367.00105911 146.220438 368.24118805 C146.64663229 370.73192384 147.0723463 373.22274185 147.49760056 375.71363831 C148.59240268 382.10256039 149.70887749 388.48768412 150.82421875 394.87304688 C151.04818014 396.15755989 151.27214153 397.44207291 151.50288963 398.76551056 C152.65548302 405.37519551 153.81141759 411.98427306 154.97216797 418.5925293 C156.11487387 425.09831908 157.24868762 431.6056214 158.377491 438.1138401 C158.80422869 440.56506232 159.23399987 443.01575859 159.66697311 445.46588707 C160.26801434 448.86877789 160.85855252 452.27334056 161.44677734 455.6784668 C161.62436584 456.66907104 161.80195435 457.65967529 161.98492432 458.68029785 C164.95566597 476.10728056 164.95566597 476.10728056 160.1875 482.875 C155.61720804 487.56672484 152.47467852 489.6085779 145.91015625 490.140625 C141.60971188 489.83377273 138.41334811 488.52876134 134.625 486.625 C133.88942871 486.26712402 133.15385742 485.90924805 132.39599609 485.54052734 C125.69113513 482.23067405 119.14913188 478.62464794 112.60913086 475.00292969 C103.72877187 470.10808965 94.7162211 465.48783959 85.6875 460.875 C75.28259925 455.55641554 64.93792051 450.16930707 54.71557617 444.50537109 C44.42269248 438.8400463 33.94215743 433.53235436 23.47851562 428.19140625 C22.75566376 427.821828 22.03281189 427.45224976 21.28805542 427.07147217 C19.8726681 426.34849396 18.45628277 425.62746584 17.03884888 424.9085083 C12.10408915 422.39230268 7.31163273 419.68466935 2.58862305 416.78662109 C-1.53567861 415.22077032 -4.69038495 416.3926036 -8.62304688 418.08325195 C-9.58275391 418.58816162 -10.54246094 419.09307129 -11.53125 419.61328125 C-12.61583496 420.17942139 -13.70041992 420.74556152 -14.81787109 421.32885742 C-15.97109863 421.94220947 -17.12432617 422.55556152 -18.3125 423.1875 C-19.53567343 423.83039865 -20.75914797 424.47272472 -21.98291016 425.11450195 C-29.95963787 429.30951679 -37.86818371 433.6254573 -45.7578125 437.98168945 C-55.65337431 443.40569427 -65.71889774 448.49741386 -75.76800537 453.62887573 C-85.011905 458.35154125 -94.2252482 463.10506836 -103.3125 468.125 C-111.22582133 472.47453708 -119.14633175 476.80968119 -127.12768555 481.0333252 C-128.39735068 481.70869092 -129.66392383 482.38990861 -130.92700195 483.07751465 C-139.41484587 487.69205992 -146.87163038 491.4592319 -156.5625 488.875 C-161.38506971 485.9072648 -165.00311458 482.30315626 -166.8125 476.875 C-167.59996311 468.44569895 -165.87977969 460.20110698 -164.39404297 451.94189453 C-164.133879 450.45937774 -163.87450146 448.97672276 -163.61584473 447.49394226 C-163.06070777 444.32023448 -162.50047646 441.14748495 -161.93627548 437.97537613 C-161.04461033 432.9596882 -160.16694763 427.94161154 -159.29153442 422.92306519 C-156.95880517 409.56288236 -154.6072291 396.20602864 -152.24840939 382.85042942 C-150.69566088 374.05816862 -149.15038178 365.264668 -147.61917984 356.46862686 C-146.74985148 351.47842561 -145.86852582 346.49053934 -144.97818351 341.50404668 C-144.42810708 338.40782046 -143.88889066 335.30977676 -143.35272217 332.21111488 C-143.10170433 330.77357351 -142.84617704 329.33681129 -142.58584976 327.90092659 C-142.23155625 325.9431798 -141.894831 323.98227777 -141.55905151 322.02127075 C-141.26868672 320.3759949 -141.26868672 320.3759949 -140.97245598 318.69748116 C-140.79826391 315.62379895 -141.11581113 314.39651616 -142.8125 311.875 C-144.6417005 309.86711754 -146.48335468 307.94766278 -148.4140625 306.04296875 C-149.24700333 305.21071526 -149.24700333 305.21071526 -150.09677124 304.36164856 C-151.27292442 303.18851211 -152.45150276 302.01780271 -153.63232422 300.84936523 C-155.41553454 299.08424266 -157.19078024 297.31141977 -158.96484375 295.53710938 C-160.11411611 294.39275974 -161.26384203 293.24886541 -162.4140625 292.10546875 C-163.1957933 291.32540718 -163.1957933 291.32540718 -163.99331665 290.52958679 C-166.832044 287.72612988 -169.73797214 285.04537585 -172.75732422 282.43676758 C-176.71294368 279.00715099 -180.41810522 275.38175865 -184.09375 271.65625 C-184.75153442 270.99467896 -185.40931885 270.33310791 -186.08703613 269.65148926 C-188.86316558 266.85921856 -191.63321537 264.06094584 -194.40380859 261.26318359 C-196.4441708 259.20459102 -198.48764331 257.14912097 -200.53125 255.09375 C-201.44880066 254.16375183 -201.44880066 254.16375183 -202.3848877 253.21496582 C-205.42999478 250.15293115 -208.52764963 247.21377772 -211.79663086 244.39086914 C-215.83383833 240.90261522 -219.60080671 237.19802646 -223.34765625 233.40234375 C-224.03000839 232.71620499 -224.71236053 232.03006622 -225.41539001 231.32313538 C-227.57107082 229.15536696 -229.72345015 226.98436802 -231.875 224.8125 C-234.71708147 221.94364553 -237.56258064 219.07824378 -240.41015625 216.21484375 C-241.36825951 215.24429298 -241.36825951 215.24429298 -242.34571838 214.25413513 C-245.87484516 210.70603191 -249.48376551 207.36247528 -253.35227966 204.18580627 C-256.62739073 201.24581426 -257.64997198 198.34994181 -258.125 194.0390625 C-258.31618844 189.19960516 -258.24914971 185.78064384 -256.125 181.375 C-250.59678189 175.39854799 -246.32175348 173.9550428 -238.44042969 172.76464844 C-237.3891325 172.59802578 -236.33783531 172.43140312 -235.25468063 172.25973129 C-224.92682043 170.72068908 -214.56735875 170.01673313 -204.15395486 169.34217304 C-135.16150094 168.43904217 -135.16150094 168.43904217 -76.13492584 141.11335564 C-63.6935658 125.7803384 -58.11648931 106.04677336 -53.83789062 87.09863281 C-51.52222949 76.84610383 -47.19336971 67.9333975 -42.2789917 58.68167114 C-40.12943746 54.56770865 -38.13263095 50.38360005 -36.12173462 46.20054626 C-34.00352182 41.80435616 -31.84561871 37.42822717 -29.68603516 33.05224609 C-28.58951912 30.82194897 -27.50016907 28.58811648 -26.41748047 26.35107422 C-24.82151776 23.05604552 -23.20246295 19.77330224 -21.578125 16.4921875 C-21.10191711 15.49645721 -20.62570923 14.50072693 -20.1350708 13.474823 C-17.15905742 7.53912102 -14.64777766 4.14399954 -8.8125 0.875 C-5.73551931 -0.04129505 -3.20936993 -0.23248979 0 0 Z " fill="#5EAFDA" transform="translate(257.8125,11.125)"/>
<path d="M0 0 C2.18221399 2.27197882 3.8113188 4.30070085 5.5625 6.875 C6.07498291 7.59316895 6.58746582 8.31133789 7.11547852 9.05126953 C8.20509678 10.58059889 9.28652401 12.11579207 10.36035156 13.65625 C12.47653617 16.68117142 14.64807552 19.66395975 16.82006836 22.64892578 C19.0107375 25.66394785 21.18422205 28.69119825 23.35888672 31.71777344 C26.06639516 35.48299047 28.78357364 39.24121448 31.5 43 C34.74136804 47.48606504 37.98141962 51.97304841 41.21484375 56.46484375 C46.76804624 64.17462973 52.35437205 71.85757631 58 79.5 C65.27942622 89.35407821 72.44830324 99.28574334 79.60449219 109.22949219 C85.6923875 117.68593036 91.80868741 126.11888909 98 134.5 C104.19011119 142.87948458 110.30474309 151.31107363 116.39111328 159.76611328 C119.62991947 164.26309 122.87694436 168.75413826 126.12304688 173.24584961 C128.84818123 177.01750442 131.56997873 180.79148212 134.28515625 184.5703125 C139.69371028 192.0913444 145.13800081 199.58212728 150.6875 207 C151.19289307 207.67691895 151.69828613 208.35383789 152.21899414 209.05126953 C154.05307739 211.49144986 155.83850416 213.83850416 158 216 C153.10954246 220.01716155 149.29343592 220.36530127 143 220 C140.32884776 219.02239853 137.95951888 218.01739199 135.4375 216.75 C134.70192871 216.39212402 133.96635742 216.03424805 133.20849609 215.66552734 C126.50363513 212.35567405 119.96163188 208.74964794 113.42163086 205.12792969 C104.54127187 200.23308965 95.5287211 195.61283959 86.5 191 C76.09509925 185.68141554 65.75042051 180.29430707 55.52807617 174.63037109 C45.23519248 168.9650463 34.75465743 163.65735436 24.29101562 158.31640625 C23.56816376 157.946828 22.84531189 157.57724976 22.10055542 157.19647217 C20.6851681 156.47349396 19.26878277 155.75246584 17.85134888 155.0335083 C12.91658915 152.51730268 8.12413273 149.80966935 3.40112305 146.91162109 C-0.72317861 145.34577032 -3.87788495 146.5176036 -7.81054688 148.20825195 C-8.77025391 148.71316162 -9.72996094 149.21807129 -10.71875 149.73828125 C-11.80333496 150.30442139 -12.88791992 150.87056152 -14.00537109 151.45385742 C-15.15859863 152.06720947 -16.31182617 152.68056152 -17.5 153.3125 C-18.72317343 153.95539865 -19.94664797 154.59772472 -21.17041016 155.23950195 C-29.14713787 159.43451679 -37.05568371 163.7504573 -44.9453125 168.10668945 C-54.84087431 173.53069427 -64.90639774 178.62241386 -74.95550537 183.75387573 C-84.199405 188.47654125 -93.4127482 193.23006836 -102.5 198.25 C-110.41332133 202.59953708 -118.33383175 206.93468119 -126.31518555 211.1583252 C-127.58485068 211.83369092 -128.85142383 212.51490861 -130.11450195 213.20251465 C-138.60234587 217.81705992 -146.05913038 221.5842319 -155.75 219 C-160.57256971 216.0322648 -164.19061458 212.42815626 -166 207 C-166.77174026 198.58480376 -165.10565685 190.32467461 -163.67675781 182.06689453 C-163.42643026 180.58435561 -163.17678495 179.10170136 -162.92776489 177.61894226 C-162.25376598 173.62005741 -161.56912507 169.62306774 -160.88156986 165.62649393 C-160.30730844 162.28411507 -159.73767955 158.9409526 -159.16782451 155.59782016 C-157.82367607 147.71421576 -156.47017724 139.83225447 -155.11132812 131.95117188 C-153.71042872 123.8249331 -152.32776426 115.69573364 -150.95353436 107.56494629 C-149.77091173 100.57251988 -148.57591887 93.58228194 -147.37121081 86.59362686 C-146.65269437 82.42425582 -145.93916723 78.25418131 -145.23801422 74.08185196 C-144.57917994 70.16405869 -143.90499102 66.24921834 -143.21886826 62.33611488 C-142.96981179 60.90035035 -142.72624336 59.46362137 -142.48858261 58.02592659 C-142.16329923 56.06351601 -141.81623007 54.10475362 -141.46807861 52.14627075 C-141.28003284 51.04942019 -141.09198708 49.95256962 -140.89824295 48.82248116 C-139.85563875 45.54638452 -138.6514972 44.14789971 -136 42 C-133.0249176 40.71069336 -133.0249176 40.71069336 -129.51000977 39.58984375 C-128.86706467 39.38110626 -128.22411957 39.17236877 -127.56169128 38.95730591 C-125.44183258 38.27230219 -123.31687751 37.60486398 -121.19140625 36.9375 C-119.70335283 36.46060349 -118.21564112 35.98263959 -116.72825623 35.50366211 C-112.80921927 34.24489111 -108.88560226 33.00103264 -104.96087646 31.76013184 C-101.01067552 30.50817096 -97.0651688 29.24160001 -93.11914062 27.9765625 C-81.34803947 24.20835675 -69.56848801 20.47358159 -57.75157166 16.85107422 C-54.57998261 15.87008662 -51.42695594 14.84222774 -48.28125 13.78125 C-47.16363281 13.40613281 -46.04601562 13.03101563 -44.89453125 12.64453125 C-43.77433594 12.26683594 -42.65414062 11.88914062 -41.5 11.5 C-33.6478769 8.85250625 -25.78421973 6.28380102 -17.85131836 3.88769531 C-14.56025586 2.86309533 -11.32574634 1.72214774 -8.09765625 0.515625 C-5.08897845 -0.22393826 -3.09785042 -0.50848555 0 0 Z " fill="#5EAFDA" transform="translate(257,281)"/>
<path d="M0 0 C0.81082031 0.04382812 1.62164062 0.08765625 2.45703125 0.1328125 C7.73863987 1.56844288 11.34799865 4.61683294 14.35992432 9.13082886 C14.99295859 10.3682243 15.60685909 11.6155432 16.20410156 12.87060547 C16.54833664 13.55615509 16.89257172 14.24170471 17.24723816 14.94802856 C18.37492743 17.20457272 19.47649394 19.47282337 20.578125 21.7421875 C21.3697855 23.33980021 22.16300831 24.93663959 22.95770264 26.53274536 C25.04756046 30.741092 27.11530742 34.95993778 29.17877197 39.18127441 C31.24211402 43.39200095 33.32730447 47.59186914 35.41015625 51.79296875 C42.4911043 66.09520449 49.49229535 80.43326207 56.33985901 94.84886169 C61.68989488 106.08330819 67.29241163 117.1923647 72.875 128.3125 C73.98131092 130.52008652 75.0874315 132.72776844 76.19335938 134.93554688 C78.85589292 140.24979304 81.52072269 145.56288227 84.1875 150.875 C83.23913392 152.30847874 82.28930491 153.74098968 81.33886719 155.1730957 C80.54570099 156.36984673 80.54570099 156.36984673 79.73651123 157.59077454 C77.75002005 160.52012305 75.62731355 163.28114285 73.4375 166.0625 C68.63105001 172.22976308 64.08558828 178.55788275 59.56640625 184.93701172 C57.02172434 188.5134432 54.44724716 192.06836922 51.875 195.625 C50.76301738 197.16275792 49.65103824 198.70051836 48.5390625 200.23828125 C47.98379883 201.0060791 47.42853516 201.77387695 46.85644531 202.56494141 C45.22231701 204.82680829 43.5911287 207.09076308 41.9609375 209.35546875 C35.83775943 217.85765665 29.66333177 226.31905926 23.43579102 234.74511719 C18.78619442 241.04327206 14.19139619 247.37957456 9.625 253.73828125 C8.63948195 255.10876729 7.6449186 256.4728024 6.640625 257.82958984 C5.13980942 259.88463535 5.13980942 259.88463535 3.796875 262.20556641 C3.32765625 262.9485498 2.8584375 263.6915332 2.375 264.45703125 C1.97667969 265.13612549 1.57835937 265.81521973 1.16796875 266.51489258 C-1.72327884 268.5004868 -3.8476911 267.95493419 -7.23187256 267.43043518 C-11.92487821 266.42034732 -16.43202869 264.94371137 -20.9765625 263.41015625 C-22.03511948 263.06099152 -23.09367645 262.71182678 -24.18431091 262.3520813 C-27.6047838 261.22198378 -31.02109454 260.07982798 -34.4375 258.9375 C-36.79062555 258.15767791 -39.14406143 257.37879164 -41.49780273 256.60083008 C-45.00769223 255.44045889 -48.51732256 254.27935733 -52.02580261 253.11473083 C-62.48145863 249.6441168 -72.96452754 246.26359603 -83.46142578 242.92016602 C-88.36777188 241.3485063 -93.23547253 239.73772767 -98.05859375 237.92578125 C-102.66135144 236.22328276 -107.31154921 234.80940994 -112.0234375 233.44921875 C-119.52600353 231.28222588 -126.93475925 228.90353127 -134.33181763 226.39971924 C-138.1884288 225.09527147 -142.0493789 223.80377361 -145.91015625 222.51171875 C-146.75696457 222.22820557 -147.60377289 221.94469238 -148.47624207 221.65258789 C-160.25810482 217.71460318 -172.06773687 213.86098623 -183.875 210 C-186.23095736 209.22892354 -188.5869144 208.45784607 -190.94287109 207.68676758 C-202.21989988 203.99797563 -213.50162001 200.32441919 -224.79296875 196.6796875 C-226.80658449 196.02856114 -228.82017566 195.37735878 -230.83374023 194.72607422 C-234.57249243 193.51678471 -238.31311819 192.31354855 -242.05493164 191.11376953 C-243.71898788 190.57607878 -245.38297345 190.03816925 -247.046875 189.5 C-247.79724533 189.26127167 -248.54761566 189.02254333 -249.32072449 188.77658081 C-252.50130016 187.74277278 -255.0092669 186.74382207 -257.8125 184.875 C-254.88060863 180.09710296 -252.25627349 175.92474955 -246.65920258 174.2186203 C-243.92820305 173.63737825 -241.20136814 173.18166031 -238.44042969 172.76464844 C-237.3891325 172.59802578 -236.33783531 172.43140312 -235.25468063 172.25973129 C-224.92682043 170.72068908 -214.56735875 170.01673313 -204.15395486 169.34217304 C-135.16150094 168.43904217 -135.16150094 168.43904217 -76.13492584 141.11335564 C-63.6935658 125.7803384 -58.11648931 106.04677336 -53.83789062 87.09863281 C-51.52222949 76.84610383 -47.19336971 67.9333975 -42.2789917 58.68167114 C-40.12943746 54.56770865 -38.13263095 50.38360005 -36.12173462 46.20054626 C-34.00352182 41.80435616 -31.84561871 37.42822717 -29.68603516 33.05224609 C-28.58951912 30.82194897 -27.50016907 28.58811648 -26.41748047 26.35107422 C-24.82151776 23.05604552 -23.20246295 19.77330224 -21.578125 16.4921875 C-21.10191711 15.49645721 -20.62570923 14.50072693 -20.1350708 13.474823 C-17.15905742 7.53912102 -14.64777766 4.14399954 -8.8125 0.875 C-5.73551931 -0.04129505 -3.20936993 -0.23248979 0 0 Z " fill="#5EAFDA" transform="translate(257.8125,11.125)"/>
<path d="M0 0 C0.10952536 1.852804 0.18627186 3.70755601 0.25 5.5625 C0.29640625 6.59503906 0.3428125 7.62757813 0.390625 8.69140625 C-0.45309374 15.83770397 -4.73165354 20.08526609 -9.9375 24.625 C-18.908859 32.70683091 -27.36369443 41.29814351 -35.85641479 49.87554932 C-37.10559349 51.13710891 -38.35575256 52.39769858 -39.60693359 53.65727234 C-40.75876893 54.81690966 -41.90846034 55.97868271 -43.05541992 57.1431427 C-45.9254877 60.03089308 -48.86169158 62.78209431 -51.94360352 65.44360352 C-55.98017835 68.93634262 -59.75153566 72.63993955 -63.5 76.4375 C-64.17998047 77.12126709 -64.85996094 77.80503418 -65.56054688 78.50952148 C-67.70950926 80.67057055 -69.85517279 82.83484726 -72 85 C-74.83033837 87.85716017 -77.66412673 90.71083454 -80.5 93.5625 C-81.45036133 94.52530884 -81.45036133 94.52530884 -82.41992188 95.50756836 C-86.1989535 99.30692269 -90.11187951 102.86888351 -94.16751099 106.37008667 C-96.62558923 108.55643238 -98.84269838 110.91815305 -101.05859375 113.34765625 C-102.38020508 114.74854492 -102.38020508 114.74854492 -103.72851562 116.17773438 C-105.0921762 117.62988049 -106.45561981 119.08263057 -107.78833008 120.56323242 C-109.10161397 122.01606017 -110.45477474 123.43252476 -111.80859375 124.84765625 C-112.59032959 125.69336182 -113.37206543 126.53906738 -114.17749023 127.41040039 C-117 129 -117 129 -120.88134766 128.56469727 C-122.59747926 128.07674119 -124.30274828 127.5500413 -126 127 C-127.0806221 126.66446609 -128.1612442 126.32893219 -129.27461243 125.98323059 C-133.22538038 124.72984404 -137.15784736 123.42790783 -141.08984375 122.1171875 C-142.57853422 121.62470334 -144.06737353 121.13266891 -145.55635071 120.64105225 C-148.7150497 119.59740849 -151.87292977 118.55133949 -155.03015137 117.50323486 C-163.270625 114.76796671 -171.51620241 112.04814586 -179.76171875 109.328125 C-180.58346714 109.05689945 -181.40521553 108.7856739 -182.25186539 108.5062294 C-199.6266784 102.77291579 -217.04341091 97.17766671 -234.48413086 91.64794922 C-235.44578659 91.34246155 -236.40744232 91.03697388 -237.39823914 90.722229 C-239.15637799 90.16404621 -240.91504988 89.60753796 -242.6743927 89.05316162 C-246.51441262 87.8347313 -250.2844797 86.56879595 -254 85 C-254 84.34 -254 83.68 -254 83 C-248.37783022 80.88182782 -242.74398872 78.8846294 -236.9909668 77.14941406 C-229.90424629 74.98546283 -222.86715524 72.68482113 -215.83203125 70.359375 C-214.48673709 69.91592114 -213.14138851 69.47263237 -211.79598999 69.02949524 C-208.94752288 68.09120259 -206.09922538 67.15239801 -203.25106812 66.21316528 C-181.59193293 59.07194049 -159.92189368 51.97197899 -138.1875 45.0625 C-114.84264719 37.63842388 -91.57350152 29.98926214 -68.30639648 22.32592773 C-65.36313316 21.35656351 -62.41985221 20.38725284 -59.4765625 19.41796875 C-58.7605015 19.18212507 -58.0444405 18.94628139 -57.30668068 18.70329094 C-42.83176038 13.93650933 -28.34129949 9.21819275 -13.83740234 4.5402832 C-13.09406647 4.29992844 -12.35073059 4.05957367 -11.58486938 3.81193542 C-9.65301281 3.18733576 -7.72057671 2.56452927 -5.78808594 1.94189453 C-0.03991706 0 -0.03991706 0 0 0 Z " fill="#12253B" transform="translate(512,196)"/>
<path d="M0 0 C5.62358277 5.62358277 5.62358277 5.62358277 7.875 8.79296875 C8.63006836 9.84774414 8.63006836 9.84774414 9.40039062 10.92382812 C9.92826172 11.67083984 10.45613281 12.41785156 11 13.1875 C12.15612683 14.80607757 13.31238037 16.42456464 14.46875 18.04296875 C15.05527344 18.86716309 15.64179688 19.69135742 16.24609375 20.54052734 C18.97938973 24.37338142 21.74022689 28.18619054 24.5 32 C25.58481417 33.50117292 26.66944917 35.00247534 27.75390625 36.50390625 C28.55852295 37.61789795 28.55852295 37.61789795 29.37939453 38.75439453 C30.99282251 40.99005445 32.60410578 43.22724516 34.21484375 45.46484375 C39.76804624 53.17462973 45.35437205 60.85757631 51 68.5 C58.27942622 78.35407821 65.44830324 88.28574334 72.60449219 98.22949219 C78.6923875 106.68593036 84.80868741 115.11888909 91 123.5 C97.19011119 131.87948458 103.30474309 140.31107363 109.39111328 148.76611328 C112.09012118 152.51359769 114.79531494 156.25661201 117.5 160 C120.74131453 164.48610379 123.98141954 168.97304831 127.21484375 173.46484375 C135.06680086 184.3664396 142.99494616 195.21025902 151 206 C151.55187988 206.74604492 152.10375977 207.49208984 152.67236328 208.26074219 C153.20458496 208.97649414 153.73680664 209.69224609 154.28515625 210.4296875 C154.75961182 211.06890137 155.23406738 211.70811523 155.72290039 212.36669922 C157.04602724 214.12701564 157.04602724 214.12701564 159 216 C154.10954246 220.01716155 150.29343592 220.36530127 144 220 C141.32884776 219.02239853 138.95951888 218.01739199 136.4375 216.75 C135.70192871 216.39212402 134.96635742 216.03424805 134.20849609 215.66552734 C127.50363513 212.35567405 120.96163188 208.74964794 114.42163086 205.12792969 C105.54127187 200.23308965 96.5287211 195.61283959 87.5 191 C77.09509925 185.68141554 66.75042051 180.29430707 56.52807617 174.63037109 C46.23519248 168.9650463 35.75465743 163.65735436 25.29101562 158.31640625 C18.21185476 154.7001603 11.16046269 151.05746577 4.20581055 147.20458984 C2.15885658 146.08675134 0.09305721 145.02841014 -2 144 C-1.34 144 -0.68 144 0 144 C0 96.48 0 48.96 0 0 Z " fill="#12253B" transform="translate(256,281)"/>
<path d="M0 0 C10.55233407 2.34496313 10.55233407 2.34496313 14 6 C15.4132928 8.2938297 16.62212586 10.4720846 17.78955078 12.88208008 C18.1334938 13.56748367 18.47743683 14.25288727 18.83180237 14.95906067 C19.96455618 17.22365173 21.07996278 19.49632458 22.1953125 21.76953125 C22.99036444 23.36831033 23.78643418 24.96658364 24.58346558 26.56437683 C26.68441413 30.7835035 28.77055284 35.00979161 30.85394287 39.23760986 C32.93474462 43.45286956 35.03083535 47.66050886 37.125 51.86914062 C44.24198639 66.18829536 51.30267752 80.5307249 58.15867615 94.97702026 C63.50286752 106.21226799 69.10572216 117.31897921 74.6875 128.4375 C75.79381092 130.64508652 76.8999315 132.85276844 78.00585938 135.06054688 C80.66839292 140.37479304 83.33322269 145.68788227 86 151 C85.05163392 152.43347874 84.10180491 153.86598968 83.15136719 155.2980957 C82.35820099 156.49484673 82.35820099 156.49484673 81.54901123 157.71577454 C79.56252005 160.64512305 77.43981355 163.40614285 75.25 166.1875 C70.44355001 172.35476308 65.89808828 178.68288275 61.37890625 185.06201172 C58.83422434 188.6384432 56.25974716 192.19336922 53.6875 195.75 C52.57551738 197.28775792 51.46353824 198.82551836 50.3515625 200.36328125 C49.79629883 201.1310791 49.24103516 201.89887695 48.66894531 202.68994141 C47.03481701 204.95180829 45.4036287 207.21576308 43.7734375 209.48046875 C37.65025943 217.98265665 31.47583177 226.44405926 25.24829102 234.87011719 C20.59869442 241.16827206 16.00389619 247.50457456 11.4375 253.86328125 C8.87318123 257.42928704 6.29486 260.98485125 3.6875 264.51953125 C3.19636719 265.18702393 2.70523437 265.8545166 2.19921875 266.54223633 C1.80347656 267.02329834 1.40773438 267.50436035 1 268 C0.67 268 0.34 268 0 268 C0 179.56 0 91.12 0 0 Z " fill="#12243A" transform="translate(256,11)"/>
<path d="M0 0 C1.4925295 1.82264111 2.92630771 3.62459566 4.26174545 5.5641861 C4.71799301 6.22023834 5.17424057 6.87629059 5.64431381 7.55222321 C6.37146591 8.60808624 6.37146591 8.60808624 7.11330795 9.68527985 C11.5458705 16.0447443 16.06136858 22.33152485 20.67580795 28.56027985 C26.89105158 36.95773421 33.02588418 45.41000568 39.12942123 53.88889313 C41.82842913 57.63637754 44.53362289 61.37939185 47.23830795 65.12277985 C50.47962249 69.60888364 53.71972749 74.09582815 56.9531517 78.5876236 C58.02722877 80.07861109 59.10144736 81.56949664 60.17580795 83.06027985 C60.96435165 84.15493561 60.96435165 84.15493561 61.76882553 85.27170563 C64.68655266 89.31272452 67.62834564 93.33434704 70.59768295 97.3376236 C71.23649399 98.19944244 71.87530502 99.06126129 72.53347397 99.94919586 C73.76808622 101.61196419 75.00543018 103.27270872 76.24587631 104.93112946 C76.80412094 105.68273346 77.36236557 106.43433746 77.9375267 107.20871735 C78.43083481 107.86920074 78.92414291 108.52968414 79.43239975 109.21018219 C80.73368559 111.11601005 81.75783009 113.03647152 82.73830795 115.12277985 C76.43962739 114.48843147 70.75863254 112.65815285 64.76955795 110.6579361 C63.70817108 110.30877136 62.64678421 109.95960663 61.5532341 109.59986115 C58.11314085 108.46699791 54.67574405 107.32617735 51.23830795 106.18527985 C48.87596879 105.40575418 46.51341909 104.62686628 44.15066147 103.84860992 C40.62565506 102.68751871 37.1007617 101.52610309 33.57658005 100.36251068 C23.09998936 96.90457768 12.60183071 93.51662928 2.08987045 90.16794586 C-2.81669781 88.59644585 -7.68451436 86.98556395 -12.5077858 85.1735611 C-17.11054348 83.47106261 -21.76074125 82.05718978 -26.47262955 80.6969986 C-33.97519557 78.53000573 -41.38395129 76.15131112 -48.78100967 73.64749908 C-52.63762085 72.34305132 -56.49857095 71.05155345 -60.3593483 69.7594986 C-61.20615662 69.47598541 -62.05296494 69.19247223 -62.92543411 68.90036774 C-74.70729687 64.96238302 -86.51692892 61.10876608 -98.32419205 57.24777985 C-100.68014941 56.47670339 -103.03610644 55.70562591 -105.39206314 54.93454742 C-116.66909193 51.24575547 -127.95081205 47.57219903 -139.2421608 43.92746735 C-141.25577654 43.27634099 -143.26936771 42.62513863 -145.28293228 41.97385406 C-149.02168448 40.76456456 -152.76231023 39.56132839 -156.50412369 38.36154938 C-158.16817993 37.82385863 -159.8321655 37.2859491 -161.49606705 36.74777985 C-162.24643738 36.50905151 -162.99680771 36.27032318 -163.76991653 36.02436066 C-166.95049221 34.99055263 -169.45845894 33.99160192 -172.26169205 32.12277985 C-169.35221007 27.3814018 -166.72868482 23.11867263 -161.12652206 21.50945282 C-158.41181744 20.98254615 -155.69813903 20.56638811 -152.95993423 20.17942047 C-151.38638735 19.93755886 -151.38638735 19.93755886 -149.78105164 19.69081116 C-147.48680385 19.3399783 -145.1914619 18.99624544 -142.89522171 18.65869904 C-139.20913786 18.11502849 -135.52710596 17.54897624 -131.84531021 16.97702789 C-115.87728778 14.50452506 -99.89370162 12.13296738 -83.91004181 9.76397705 C-75.05470922 8.45110317 -66.20186399 7.12333587 -57.35152936 5.77717352 C-51.07645456 4.82402031 -44.79897789 3.8879137 -38.51947284 2.96440363 C-34.785455 2.4147458 -31.05294352 1.85749793 -27.32288742 1.28151703 C-23.18900099 0.64353479 -19.05072686 0.04078688 -14.91110611 -0.55886078 C-13.68214111 -0.75397247 -12.45317612 -0.94908417 -11.18696976 -1.15010834 C-9.50163887 -1.38561401 -9.50163887 -1.38561401 -7.78226089 -1.62587738 C-6.8068346 -1.77185616 -5.83140831 -1.91783493 -4.82642365 -2.0682373 C-2.26169205 -1.87722015 -2.26169205 -1.87722015 0 0 Z " fill="#12253B" transform="translate(172.26169204711914,163.8772201538086)"/>
<path d="M0 0 C4.25687667 0.62000363 8.18952705 1.59324446 12.27832031 2.92333984 C13.51412842 3.32308014 14.74993652 3.72282043 16.02319336 4.13467407 C17.37486403 4.57667998 18.72650704 5.01877044 20.078125 5.4609375 C21.50419556 5.92397682 22.93038667 6.38664501 24.35668945 6.84896851 C28.19382905 8.09402903 32.02918355 9.3445005 35.86408997 10.59642029 C39.85108051 11.897471 43.83920298 13.19504395 47.82714844 14.49316406 C52.71410202 16.08428958 57.60077597 17.676263 62.4866333 19.27075195 C71.75157669 22.29396981 81.02097085 25.30276911 90.29669189 28.29275513 C95.04150548 29.82234749 99.78425932 31.35827208 104.5263176 32.89638329 C107.69456249 33.92371735 110.8640006 34.94708649 114.03527832 35.96502686 C117.53152286 37.08805278 121.02393685 38.2222758 124.515625 39.359375 C125.54349121 39.68650482 126.57135742 40.01363464 127.63037109 40.35067749 C129.03198486 40.81082748 129.03198486 40.81082748 130.46191406 41.28027344 C131.67624115 41.67252106 131.67624115 41.67252106 132.9151001 42.07269287 C135.3030213 43.13477569 136.36626925 43.95642819 138 46 C138.77519512 48.69943333 138.77519512 48.69943333 139.3478241 52.02601624 C139.57071609 53.28622589 139.79360809 54.54643555 140.02325439 55.84483337 C140.25817075 57.24425359 140.4928427 58.64371484 140.72729492 60.04321289 C140.98288042 61.51527199 141.23950301 62.98715134 141.49708557 64.4588623 C142.19400333 68.4594296 142.87572154 72.4624521 143.55433822 76.46615911 C144.26736699 80.66018989 144.99274776 84.85208542 145.71638489 89.04429626 C146.93090222 96.09183079 148.1357399 103.14096815 149.3347168 110.19116211 C150.71821326 118.32574947 152.11605377 126.45776893 153.52190703 134.58852011 C154.87582735 142.42052609 156.22021758 150.25413838 157.56008339 158.0885601 C158.12930267 161.4161594 158.70167133 164.74319373 159.27660179 168.06981087 C159.95493849 171.99764683 160.62482808 175.92683619 161.28844261 179.85718536 C161.53228325 181.29349363 161.77890077 182.72933389 162.02861404 184.1646328 C165.76460292 205.66984166 165.76460292 205.66984166 161 213 C160.34 213.66 159.68 214.32 159 215 C157.1640625 214.98046875 157.1640625 214.98046875 155 214 C153.30529651 212.13582616 151.84671015 210.33987075 150.375 208.3125 C149.93969971 207.72944092 149.50439941 207.14638184 149.0559082 206.5456543 C147.69026548 204.70669362 146.34236229 202.8560088 145 201 C144.59475098 200.44054687 144.18950195 199.88109375 143.77197266 199.3046875 C141.72934617 196.47501699 139.70418534 193.63336035 137.6875 190.78515625 C134.71386892 186.58767626 131.70202575 182.41816674 128.6875 178.25 C127.57551738 176.71224208 126.46353824 175.17448164 125.3515625 173.63671875 C124.51866699 172.48502197 124.51866699 172.48502197 123.66894531 171.31005859 C122.03481701 169.04819171 120.4036287 166.78423692 118.7734375 164.51953125 C113.22450027 156.8146913 107.64176126 149.1371894 102 141.5 C94.72057378 131.64592179 87.55169676 121.71425666 80.39550781 111.77050781 C74.3076125 103.31406964 68.19131259 94.88111091 62 86.5 C55.80988881 78.12051542 49.69525691 69.68892637 43.60888672 61.23388672 C40.90987882 57.48640231 38.20468506 53.74338799 35.5 50 C32.25868547 45.51389621 29.01858046 41.02695169 25.78515625 36.53515625 C24.71107918 35.04416876 23.63686059 33.55328321 22.5625 32.0625 C22.0368042 31.33272949 21.5111084 30.60295898 20.96948242 29.85107422 C18.05175529 25.81005533 15.10996232 21.78843281 12.140625 17.78515625 C11.50181396 16.9233374 10.86300293 16.06151855 10.20483398 15.17358398 C8.97022173 13.51081565 7.73287777 11.85007113 6.49243164 10.19165039 C5.93418701 9.44004639 5.37594238 8.68844238 4.80078125 7.9140625 C4.30747314 7.2535791 3.81416504 6.5930957 3.3059082 5.91259766 C2.00462237 4.00676979 0.98047786 2.08630833 0 0 Z " fill="#5EAEDA" transform="translate(257,281)"/>
<path d="M0 0 C-1.64109799 5.3044522 -5.0114403 9.32032553 -8.3125 13.6875 C-9.59063608 15.39914821 -10.86796157 17.11140197 -12.14453125 18.82421875 C-12.79115723 19.68966309 -13.4377832 20.55510742 -14.10400391 21.44677734 C-16.94257013 25.26930188 -19.72277044 29.13280324 -22.5 33 C-26.95947108 39.19706849 -31.46260386 45.3597704 -36 51.5 C-42.19025495 59.87937675 -48.30474458 68.31107571 -54.39111328 76.76611328 C-57.63146195 81.26523169 -60.88027702 85.75824119 -64.12744141 90.25244141 C-66.82598022 93.987945 -69.52257953 97.7248148 -72.21484375 101.46484375 C-77.82903178 109.25915847 -83.47885383 117.024536 -89.1875 124.75 C-94.00394216 131.26868079 -98.76022935 137.8244828 -103.45703125 144.4296875 C-111.44479111 155.66000334 -119.56585663 166.79198204 -127.75537109 177.87573242 C-133.42166324 185.55261889 -139.00366717 193.28910936 -144.57958984 201.03173828 C-147.20949307 204.675994 -149.85998261 208.30520105 -152.51171875 211.93359375 C-153.71001489 213.59736976 -154.86265298 215.29397948 -156 217 C-156.98475214 215.90081184 -157.96260473 214.7954398 -158.9375 213.6875 C-159.48277344 213.07261719 -160.02804688 212.45773437 -160.58984375 211.82421875 C-164.51175885 206.75071638 -163.32982577 199.67803973 -162.5921402 193.68835831 C-161.99607989 189.80675323 -161.34630652 185.93629736 -160.67675781 182.06689453 C-160.42643026 180.58435561 -160.17678495 179.10170136 -159.92776489 177.61894226 C-159.25376598 173.62005741 -158.56912507 169.62306774 -157.88156986 165.62649393 C-157.30730844 162.28411507 -156.73767955 158.9409526 -156.16782451 155.59782016 C-154.82367607 147.71421576 -153.47017724 139.83225447 -152.11132812 131.95117188 C-150.71042872 123.8249331 -149.32776426 115.69573364 -147.95353436 107.56494629 C-146.77091173 100.57251988 -145.57591887 93.58228194 -144.37121081 86.59362686 C-143.65269437 82.42425582 -142.93916723 78.25418131 -142.23801422 74.08185196 C-141.57917994 70.16405869 -140.90499102 66.24921834 -140.21886826 62.33611488 C-139.96981179 60.90035035 -139.72624336 59.46362137 -139.48858261 58.02592659 C-139.16329923 56.06351601 -138.81623007 54.10475362 -138.46807861 52.14627075 C-138.28003284 51.04942019 -138.09198708 49.95256962 -137.89824295 48.82248116 C-136.85563875 45.54638452 -135.6514972 44.14789971 -133 42 C-130.0249176 40.71069336 -130.0249176 40.71069336 -126.51000977 39.58984375 C-125.86706467 39.38110626 -125.22411957 39.17236877 -124.56169128 38.95730591 C-122.44183258 38.27230219 -120.31687751 37.60486398 -118.19140625 36.9375 C-116.70335283 36.46060349 -115.21564112 35.98263959 -113.72825623 35.50366211 C-109.80921927 34.24489111 -105.88560226 33.00103264 -101.96087646 31.76013184 C-98.01067552 30.50817096 -94.0651688 29.24160001 -90.11914062 27.9765625 C-78.34803947 24.20835675 -66.56848801 20.47358159 -54.75157166 16.85107422 C-51.57998261 15.87008662 -48.42695594 14.84222774 -45.28125 13.78125 C-44.16363281 13.40613281 -43.04601562 13.03101563 -41.89453125 12.64453125 C-40.77433594 12.26683594 -39.65414062 11.88914062 -38.5 11.5 C-30.65358045 8.85442931 -22.79533533 6.28670688 -14.86962891 3.88769531 C-11.48585414 2.84095335 -8.14250632 1.69960601 -4.8046875 0.515625 C-3 0 -3 0 0 0 Z " fill="#144075" transform="translate(254,281)"/>
<path d="M0 0 C8.36541298 1.62919089 16.3462344 4.29575598 24.41796875 6.98046875 C25.92168244 7.47692052 27.42553568 7.9729498 28.92951965 8.46858215 C32.88258764 9.77237479 36.83398624 11.08115176 40.78497314 12.39123535 C45.50623707 13.95599437 50.22869488 15.51715457 54.95235062 17.07467842 C58.77404496 18.33505309 62.59353158 19.60134812 66.40863037 20.88156128 C72.76647714 23.00737049 79.09382126 25.08203235 85.58496094 26.77197266 C99.48107687 30.45236864 107.31258368 36.38808118 116.875 47 C118.7772636 49.02804514 120.69062604 51.0452063 122.60427856 53.0625 C123.77362926 54.30365585 124.93439855 55.5529876 126.08395386 56.8125 C129.51532748 60.55840587 133.12977029 63.91621556 136.98266602 67.224823 C140.31626486 70.1582629 143.41688849 73.31374771 146.53515625 76.47265625 C147.21750839 77.15879501 147.89986053 77.84493378 148.60289001 78.55186462 C150.75857082 80.71963304 152.91095015 82.89063198 155.0625 85.0625 C157.90458147 87.93135447 160.75008064 90.79675622 163.59765625 93.66015625 C164.23639175 94.30719009 164.87512726 94.95422394 165.53321838 95.62086487 C169.52567575 99.63479005 173.65743179 103.36670746 178 107 C177 109 177 109 174.78068542 109.91712952 C173.30986259 110.38559547 173.30986259 110.38559547 171.80932617 110.86352539 C170.14706245 111.39901756 170.14706245 111.39901756 168.45121765 111.94532776 C167.24399551 112.32559616 166.03677338 112.70586456 164.79296875 113.09765625 C163.56089188 113.49198349 162.328815 113.88631073 161.05940247 114.29258728 C157.77674951 115.34293041 154.49118823 116.38388233 151.20501709 117.42315674 C148.52896428 118.27118739 145.85503115 119.12578283 143.18119335 119.98076725 C137.64930416 121.74944031 132.11574021 123.51289088 126.57885742 125.26586914 C125.10445442 125.73314171 125.10445442 125.73314171 123.6002655 126.20985413 C122.74217789 126.47060226 121.88409027 126.7313504 121 127 C120.2846962 127.24914658 119.5693924 127.49829315 118.83241272 127.75498962 C118.22771652 127.83584305 117.62302032 127.91669647 117 128 C114.70881338 126.14511956 112.78472397 124.34096747 110.765625 122.21875 C109.87034088 121.30929626 109.87034088 121.30929626 108.95697021 120.38146973 C107.04255446 118.43239402 105.14589786 116.4670782 103.25 114.5 C101.36517929 112.56489162 99.47679885 110.63336948 97.58587646 108.70422363 C96.41055526 107.50293131 95.23922953 106.29771078 94.07281494 105.08776855 C90.53465878 101.44474823 86.8384846 98.08235707 82.99481201 94.76501465 C79.76476163 91.90705801 76.74672343 88.85030098 73.71875 85.78125 C72.73207336 84.78889343 72.73207336 84.78889343 71.72546387 83.77648926 C68.94933442 80.98421856 66.17928463 78.18594584 63.40869141 75.38818359 C61.3683292 73.32959102 59.32485669 71.27412097 57.28125 69.21875 C56.36369934 68.28875183 56.36369934 68.28875183 55.4276123 67.33996582 C52.38250522 64.27793115 49.28485037 61.33877772 46.01586914 58.51586914 C41.97866167 55.02761522 38.21169329 51.32302646 34.46484375 47.52734375 C33.44131554 46.4981356 33.44131554 46.4981356 32.39710999 45.44813538 C30.24142918 43.28036696 28.08904985 41.10936802 25.9375 38.9375 C23.09541853 36.06864553 20.24991936 33.20324378 17.40234375 30.33984375 C16.76360825 29.69280991 16.12487274 29.04577606 15.46678162 28.37913513 C11.93826912 24.8316495 8.33055264 21.49006412 4.46022034 18.31690979 C1.21126988 15.3868214 0.0908695 12.49315109 -0.171875 8.17578125 C-0.1858736 5.44255381 -0.13114567 2.7297729 0 0 Z " fill="#AACFE7" transform="translate(0,197)"/>
<path d="M0 0 C-1.64109799 5.3044522 -5.0114403 9.32032553 -8.3125 13.6875 C-9.59063608 15.39914821 -10.86796157 17.11140197 -12.14453125 18.82421875 C-12.79115723 19.68966309 -13.4377832 20.55510742 -14.10400391 21.44677734 C-16.94257013 25.26930188 -19.72277044 29.13280324 -22.5 33 C-26.95947108 39.19706849 -31.46260386 45.3597704 -36 51.5 C-42.19025495 59.87937675 -48.30474458 68.31107571 -54.39111328 76.76611328 C-57.62777976 81.26011909 -60.87281357 85.74808801 -64.11645508 90.23706055 C-66.87782595 94.05931119 -69.63657453 97.88340812 -72.390625 101.7109375 C-77.29083349 108.51800164 -82.19373806 115.3236062 -87.1875 122.0625 C-88.22970703 123.47208984 -88.22970703 123.47208984 -89.29296875 124.91015625 C-91 127 -91 127 -93 128 C-92.31173577 119.2583796 -90.86980581 110.6512618 -89.41796875 102.01171875 C-89.15972439 100.46209707 -88.90169763 98.91243911 -88.64387512 97.36274719 C-88.10375273 94.1206341 -87.5613899 90.87890644 -87.01733398 87.63745117 C-86.4669329 84.35759746 -85.91901899 81.07734655 -85.3737793 77.79663086 C-83.95134518 69.23797453 -82.51543099 60.68197262 -81.04470634 52.13146782 C-80.3015812 47.80217595 -79.59063595 43.46890663 -78.89697266 39.13134766 C-78.57431246 37.21889464 -78.25068281 35.30660476 -77.92578125 33.39453125 C-77.73812447 32.14092049 -77.73812447 32.14092049 -77.54667664 30.86198425 C-76.90508077 27.23723012 -76.48596304 25.39083463 -73.56298828 23.04003906 C-70.59028428 21.83374081 -67.64296369 20.84069058 -64.5625 19.9375 C-55.60715501 17.24925933 -46.7510923 14.27372525 -37.89089966 11.29049683 C-30.23164942 8.71219289 -22.55952195 6.21114452 -14.82348633 3.87231445 C-11.45486107 2.83157965 -8.12719231 1.69417388 -4.8046875 0.515625 C-3 0 -3 0 0 0 Z " fill="#12253B" transform="translate(254,281)"/>
<path d="M0 0 C0.33 0 0.66 0 1 0 C0.36883383 5.36547363 -0.43001764 10.66695802 -1.41015625 15.98046875 C-1.68089638 17.49013444 -1.95106025 18.99990357 -2.22070312 20.50976562 C-2.6388443 22.84261749 -3.06012628 25.17467488 -3.49145508 27.50512695 C-7.48373163 45.26830014 -7.48373163 45.26830014 -3 62 C-2.67 62.99 -2.34 63.98 -2 65 C-3.21562622 65.62660522 -3.21562622 65.62660522 -4.45581055 66.26586914 C-7.52969532 67.85104262 -10.60302986 69.43727368 -13.67602539 71.02416992 C-14.99352263 71.70426651 -16.31122344 72.38396893 -17.62915039 73.06323242 C-19.54890869 74.0527759 -21.46792139 75.0437509 -23.38671875 76.03515625 C-24.02221146 76.36275436 -24.65770416 76.69035248 -25.31245422 77.02787781 C-28.45312989 78.65349259 -31.57417513 80.30518875 -34.66674805 82.02075195 C-35.80539307 82.65070068 -36.94403809 83.28064941 -38.1171875 83.9296875 C-39.62514893 84.77829346 -39.62514893 84.77829346 -41.16357422 85.64404297 C-46.74293036 88.31126142 -51.70377337 88.59385172 -57.625 87.0625 C-58.40875 86.711875 -59.1925 86.36125 -60 86 C-59.48947836 81.39679657 -57.46280303 78.41965092 -54.75 74.8125 C-53.83323912 73.56256909 -52.91657729 72.31256554 -52 71.0625 C-51.51144531 70.4025 -51.02289063 69.7425 -50.51953125 69.0625 C-48.44248465 66.24326966 -46.4026937 63.39788664 -44.36035156 60.5534668 C-38.71531215 52.69782448 -32.99216844 44.90126693 -27.24243164 37.12207031 C-23.18676908 31.62872195 -19.176158 26.10464767 -15.1875 20.5625 C-11.40390168 15.31181543 -7.61184927 10.06852143 -3.75 4.875 C-3.04359375 3.92367188 -2.3371875 2.97234375 -1.609375 1.9921875 C-1.07828125 1.33476562 -0.5471875 0.67734375 0 0 Z " fill="#A8CEE6" transform="translate(159,413)"/>
<path d="M0 0 C0 0.33 0 0.66 0 1 C-1.98 1 -3.96 1 -6 1 C-6.22773594 5.79156416 -6.2143075 10.23865299 -3.421875 14.2890625 C-2.37773437 15.38347656 -2.37773437 15.38347656 -1.3125 16.5 C-0.49982666 17.35835449 0.31284668 18.21670898 1.15014648 19.10107422 C2.0981652 20.06927877 3.04824485 21.03546816 4 22 C4.52578644 22.53643127 5.05157288 23.07286255 5.59329224 23.62554932 C9.7174148 27.82466958 13.8861677 31.97791141 18.0625 36.125 C19.32250102 37.37997204 20.58226824 38.63517886 21.84179688 39.890625 C24.89184853 42.92979084 27.9450262 45.96578227 31 49 C27.66888504 50.11037165 27.03752861 49.92946972 23.84375 48.86694336 C23.00024994 48.59123001 22.15674988 48.31551666 21.28768921 48.03144836 C20.36775177 47.72071884 19.44781433 47.40998932 18.5 47.08984375 C17.53212555 46.77093674 16.5642511 46.45202972 15.56704712 46.12345886 C12.37521463 45.06977893 9.18766041 44.00372828 6 42.9375 C3.79895896 42.20793525 1.59762121 41.47926509 -0.60400391 40.75146484 C-3.9970341 39.6295527 -7.38978119 38.50684099 -10.78140259 37.38067627 C-18.41341382 34.84745536 -26.05693185 32.35263825 -33.7109375 29.88671875 C-34.70538879 29.56579758 -35.69984009 29.2448764 -36.72442627 28.91423035 C-40.54565091 27.68118095 -44.3668785 26.44820076 -48.19042969 25.22238159 C-50.80280587 24.38421513 -53.41328975 23.54038828 -56.0234375 22.6953125 C-57.17783829 22.3275898 -57.17783829 22.3275898 -58.3555603 21.95243835 C-61.58271556 20.90281572 -64.15697397 19.89535069 -67 18 C-64.05920751 13.20759742 -61.44565287 8.97526347 -55.78149414 7.37207031 C-52.98684702 6.83166747 -50.19320777 6.39990084 -47.375 6 C-46.33480713 5.84047852 -45.29461426 5.68095703 -44.22290039 5.51660156 C-41.99063474 5.17661722 -39.75726053 4.84384835 -37.52294922 4.51757812 C-33.89864758 3.98510969 -30.27945058 3.42481487 -26.66015625 2.859375 C-24.25276143 2.48856088 -21.84521249 2.11874579 -19.4375 1.75 C-18.30296387 1.5746875 -17.16842773 1.399375 -15.99951172 1.21875 C-10.60748631 0.41597509 -5.45238603 -0.21903416 0 0 Z " fill="#154075" transform="translate(67,178)"/>
</svg>
